PathFileType	4	(X/Y/Z)	\\Move.snu.ac.kr\motion\Animal\091204_091205_Bird\091205_bird\Project 2\Capture day 2\Session 1\pigeon_011.trc
DataRate	CameraRate	NumFrames	NumMarkers	Units	OrigDataRate	OrigDataStartFrame	OrigNumFrames
240.0	240.0	24	14	mm	240.0	47	1439
Frame#	Time	14MarkersBird:Head			14MarkersBird:C_back			14MarkersBird:Spine			14MarkersBird:L-shoulder			14MarkersBird:L-elbow			14MarkersBird:L-wrist			14MarkersBird:L-hand			14MarkersBird:R-shoulder			14MarkersBird:R-elbow			14MarkersBird:R-Wrist			14MarkersBird:R-hand			14MarkersBird:C_Tail			14MarkersBird:L-Tale			14MarkersBird:R-Tale			
		X1	Y1	Z1	X2	Y2	Z2	X3	Y3	Z3	X4	Y4	Z4	X5	Y5	Z5	X6	Y6	Z6	X7	Y7	Z7	X8	Y8	Z8	X9	Y9	Z9	X10	Y10	Z10	X11	Y11	Z11	X12	Y12	Z12	X13	Y13	Z13	X14	Y14	Z14	

664	2.763	-822.53717	1214.79321	-1584.89758	-821.56824	1222.46851	-1647.43872	-828.43964	1212.95459	-1701.20923	-798.92151	1213.20691	-1617.01331	-774.78754	1201.86829	-1639.11890	-772.15985	1192.27502	-1596.99292	-772.05176	1171.66736	-1578.32544	-844.10480	1211.38000	-1613.04272	-867.54340	1203.32825	-1625.87988	-855.53149	1185.45886	-1588.71887	-855.81012	1154.47888	-1565.85583	-825.39844	1134.97705	-1799.15564	-744.60754	1160.96899	-1746.01550	-919.48602	1153.92542	-1743.26257	
665	2.767	-820.87103	1210.78186	-1572.04272	-820.03003	1219.00964	-1634.49536	-826.73737	1209.13879	-1688.53894	-797.22040	1210.13232	-1604.55383	-773.57257	1200.53101	-1630.09985	-770.54462	1195.20142	-1586.97229	-772.18884	1174.64819	-1568.09521	-842.42609	1208.22021	-1600.64185	-866.32941	1201.71594	-1616.51025	-854.15308	1188.35876	-1578.31934	-850.74817	1157.07373	-1555.36694	-823.48285	1131.37915	-1786.51587	-742.77148	1157.76306	-1733.81458	-916.45551	1147.22791	-1730.29565	
666	2.771	-819.15247	1206.73022	-1558.95923	-818.47711	1215.01965	-1621.21692	-824.98816	1205.27014	-1675.60449	-795.58966	1206.70459	-1592.02905	-772.66779	1200.62573	-1621.29126	-767.11249	1198.92273	-1577.90466	-768.28680	1177.60156	-1559.64160	-840.64740	1204.78589	-1588.10986	-865.08563	1201.41479	-1607.66211	-855.37360	1192.25415	-1568.17822	-851.12909	1160.51160	-1545.77966	-821.48584	1127.51343	-1773.60425	-740.63818	1154.88794	-1721.22205	-913.40558	1140.15967	-1716.49060	
667	2.775	-817.37048	1202.68213	-1545.78015	-816.92480	1210.55261	-1607.72729	-823.19049	1201.35645	-1662.48865	-794.09338	1202.92896	-1579.45569	-772.60297	1201.79053	-1612.21594	-762.71100	1203.16333	-1569.54065	-761.33990	1180.24097	-1553.31079	-838.68774	1201.20776	-1575.48401	-862.90405	1202.15320	-1599.21094	-857.91144	1196.76184	-1558.31653	-855.74762	1163.93689	-1537.65259	-819.26691	1123.18542	-1760.36060	-738.24841	1152.39478	-1708.44592	-910.34460	1133.10291	-1702.25720	
668	2.779	-815.51166	1198.63647	-1532.63770	-815.39142	1205.70227	-1594.11853	-821.34723	1197.30640	-1649.28076	-792.75647	1198.84216	-1566.83179	-773.87854	1203.37805	-1602.45996	-758.62982	1207.71863	-1561.63123	-752.88397	1183.10376	-1549.58801	-836.51648	1197.58044	-1562.85376	-858.92297	1203.43250	-1590.69104	-860.48779	1201.56970	-1549.04199	-863.03845	1167.43750	-1531.56714	-816.74524	1118.39563	-1746.85193	-735.63043	1150.29700	-1695.59802	-907.48578	1126.66199	-1688.07190	
669	2.783	-813.58038	1194.58142	-1519.63770	-813.90131	1200.58911	-1580.38574	-819.47040	1193.00720	-1636.05652	-791.54181	1194.49268	-1554.12891	-776.70404	1204.58228	-1591.81018	-756.13165	1212.26392	-1553.83301	-745.06610	1187.02539	-1548.55200	-834.14990	1193.87598	-1550.36548	-852.85168	1204.53003	-1581.50500	-861.88190	1206.25891	-1540.72815	-871.31934	1171.89612	-1527.79370	-813.90308	1113.36877	-1733.28442	-732.81549	1148.45227	-1682.62976	-905.19678	1121.59387	-1674.36902	
670	2.787	-811.59784	1190.49817	-1506.84436	-812.54572	1195.84119	-1567.16980	-817.58881	1188.40344	-1622.88489	-790.34125	1190.04736	-1541.29919	-780.72418	1204.63879	-1580.25293	-755.89679	1216.25122	-1545.74243	-740.07745	1192.73413	-1549.20325	-831.56982	1190.04004	-1538.11011	-845.08551	1204.73608	-1571.29968	-861.12640	1210.58313	-1533.21045	-878.76239	1178.50562	-1526.15503	-810.73822	1108.41663	-1719.92749	-729.84839	1146.71082	-1669.42798	-903.77332	1118.34631	-1661.34692	
671	2.792	-809.58618	1186.37964	-1494.24512	-811.13452	1190.96033	-1554.12964	-815.73309	1183.50989	-1609.82056	-789.03082	1185.64771	-1528.37854	-785.10724	1203.12451	-1567.94507	-757.59967	1219.13843	-1537.02917	-739.10040	1200.38757	-1549.60449	-828.75958	1186.06958	-1526.00000	-836.49323	1203.56006	-1560.06689	-857.92010	1214.28577	-1525.77759	-883.47589	1187.91992	-1526.06519	-807.23547	1103.78296	-1706.98926	-726.78552	1145.09741	-1655.92725	-903.15717	1116.61206	-1648.81372	
672	2.796	-807.58679	1182.21655	-1481.71863	-809.70422	1185.93433	-1541.42285	-813.92230	1178.35413	-1596.89124	-787.51550	1181.21167	-1515.53259	-788.93622	1200.13049	-1555.09888	-760.17328	1220.70715	-1527.64075	-741.79822	1209.39612	-1547.86755	-825.85901	1181.84363	-1513.86072	-828.16687	1200.87341	-1548.05444	-852.86157	1217.14453	-1517.65601	-883.85535	1199.80811	-1526.38391	-803.43005	1099.55408	-1694.52881	-723.69836	1143.80200	-1642.14771	-902.98706	1115.53589	-1636.33521	
673	2.800	-805.63104	1178.04382	-1469.10620	-808.23529	1180.80518	-1528.99365	-812.14514	1172.92346	-1584.11633	-785.73883	1176.64197	-1502.89136	-791.55591	1196.21643	-1541.79663	-762.33582	1221.21118	-1517.82178	-746.85962	1218.73230	-1542.94458	-823.19116	1177.23206	-1501.53760	-821.15521	1196.96631	-1535.42920	-847.20508	1219.05371	-1508.42725	-879.32019	1212.97656	-1525.52612	-799.50311	1095.71680	-1682.53088	-720.66595	1142.89185	-1628.13513	-902.92859	1114.35815	-1623.55847	
674	2.804	-803.74078	1173.90002	-1456.39258	-806.70844	1175.61499	-1516.78650	-810.39227	1167.46948	-1571.25830	-783.69763	1171.98425	-1490.43518	-792.67218	1192.09045	-1527.94324	-762.94904	1220.93713	-1507.84436	-752.58148	1227.15845	-1534.68433	-821.05328	1172.19641	-1488.95447	-816.20190	1192.48669	-1522.10986	-842.48779	1219.86975	-1498.03760	-870.97156	1225.72083	-1521.86963	-795.79468	1092.27112	-1671.01111	-717.76245	1142.08057	-1613.94031	-902.85175	1112.85046	-1610.40552	
675	2.808	-801.90051	1169.77429	-1443.70166	-805.10419	1170.40564	-1504.74573	-808.65851	1162.00305	-1558.52295	-781.48468	1167.29785	-1478.12805	-792.18488	1188.23315	-1513.51404	-761.25793	1219.79236	-1497.90356	-756.94025	1233.33337	-1523.63037	-819.55682	1166.81482	-1476.20422	-813.53815	1188.05554	-1507.73230	-840.04395	1219.26135	-1486.64294	-861.82471	1236.11230	-1514.13574	-792.69897	1089.28967	-1660.01270	-715.05084	1140.79382	-1599.67358	-902.73297	1111.16443	-1597.02722	
676	2.813	-800.15814	1165.52002	-1431.10461	-803.40314	1165.21936	-1492.81567	-806.98340	1156.49951	-1546.09534	-779.22443	1162.62585	-1465.98010	-790.03314	1184.63171	-1498.93604	-757.11218	1217.29810	-1488.08691	-757.73669	1236.16760	-1510.88318	-818.62579	1161.23779	-1463.45618	-812.96198	1183.87683	-1492.24377	-840.54407	1216.64417	-1474.53162	-855.87360	1242.41467	-1501.87537	-790.45746	1086.80396	-1649.47156	-712.58044	1138.45642	-1585.54089	-902.48584	1109.33875	-1583.63623	
677	2.817	-798.52295	1161.02917	-1418.59570	-801.58582	1160.09814	-1480.94080	-805.34344	1151.02612	-1533.90161	-777.03564	1158.01172	-1454.02112	-786.28168	1180.92151	-1484.99146	-750.82776	1212.80579	-1478.26294	-753.31622	1235.12891	-1497.71558	-817.98297	1155.67297	-1450.81934	-814.04736	1179.77979	-1476.49097	-843.68097	1211.46875	-1461.95361	-855.90729	1243.41309	-1485.83337	-789.01257	1084.65576	-1639.11646	-710.36169	1134.76526	-1571.75720	-901.91187	1107.01208	-1570.38623	
678	2.821	-796.86237	1156.38477	-1406.18311	-799.63287	1155.08386	-1469.06531	-803.71539	1145.64990	-1521.86829	-774.96698	1153.49231	-1442.21973	-781.11804	1176.68054	-1472.12256	-742.91742	1205.86133	-1468.11401	-743.42590	1230.05078	-1484.85706	-817.23560	1150.28125	-1438.26025	-816.13165	1175.36365	-1461.67517	-848.49268	1205.39978	-1449.74817	-861.90192	1238.72070	-1467.44385	-788.04523	1082.45642	-1628.55615	-708.35284	1129.76721	-1558.43872	-900.85754	1103.61853	-1557.35046	
679	2.825	-795.03082	1151.78198	-1393.86792	-797.52490	1150.21863	-1457.13367	-802.07562	1140.43823	-1509.92175	-772.97589	1149.08325	-1430.44812	-774.80731	1171.60388	-1460.06238	-734.00513	1196.37732	-1457.22107	-729.39001	1220.81274	-1472.04724	-816.13306	1145.12463	-1425.60449	-818.48303	1170.19360	-1448.19812	-851.53809	1199.47241	-1437.13770	-871.49658	1228.83252	-1447.73425	-787.14423	1079.70813	-1617.47791	-706.48090	1123.58716	-1545.56812	-899.32745	1098.79150	-1544.53992	
680	2.829	-792.99817	1147.34558	-1381.61475	-795.24243	1145.54456	-1445.09033	-800.40076	1135.45837	-1497.98828	-770.94037	1144.73010	-1418.54504	-767.63947	1165.48682	-1448.14453	-724.81580	1184.51904	-1445.10632	-713.51123	1207.45386	-1458.32178	-814.69104	1140.06702	-1412.72986	-820.75610	1164.07178	-1435.41492	-856.25592	1192.87073	-1424.75879	-881.76410	1214.65210	-1426.96838	-786.04932	1075.97754	-1605.71277	-704.71515	1116.30774	-1533.11157	-897.43372	1092.66699	-1531.96240	
681	2.833	-790.74609	1143.12793	-1369.36938	-792.76611	1141.10352	-1432.87939	-798.66742	1130.77734	-1485.99426	-768.75708	1140.26770	-1406.41724	-759.96576	1158.24805	-1435.77136	-716.02722	1170.65186	-1431.28271	-698.15173	1190.51733	-1442.62085	-813.02496	1134.96289	-1399.75439	-822.98224	1157.08203	-1422.15771	-861.19379	1178.15369	-1408.21875	-890.49017	1196.99011	-1405.10010	-784.81262	1071.07837	-1593.22217	-703.13831	1108.09338	-1521.08301	-895.28760	1085.80017	-1519.64502	
682	2.838	-788.28046	1139.08337	-1357.07581	-790.07648	1136.93762	-1420.44556	-796.85217	1126.46265	-1473.86609	-766.38745	1135.51416	-1394.07617	-752.22400	1149.98218	-1422.61768	-708.27832	1155.26746	-1415.40527	-685.07843	1170.95422	-1424.35229	-811.09601	1129.74695	-1386.88477	-825.05298	1149.49292	-1407.70715	-863.81549	1161.39722	-1390.23853	-896.32135	1176.58203	-1382.27478	-783.72638	1065.14380	-1580.06128	-701.92523	1099.34924	-1509.50183	-892.93994	1078.91309	-1507.63782	
683	2.842	-785.62073	1135.14746	-1344.70715	-787.18915	1133.00464	-1407.85095	-794.93152	1122.58130	-1461.53003	-763.83032	1130.44495	-1381.57886	-744.90479	1140.94250	-1408.60120	-702.27582	1138.94312	-1397.56519	-675.41840	1149.69629	-1403.60315	-808.83228	1124.67334	-1374.04236	-826.56500	1141.45752	-1392.04187	-863.67010	1143.22156	-1371.36621	-898.37915	1154.12146	-1358.99976	-783.11993	1058.56543	-1566.32495	-701.21350	1090.61133	-1498.31396	-890.42059	1072.67419	-1495.94458	
684	2.846	-782.81604	1131.23816	-1332.24890	-784.32751	1129.02515	-1395.27161	-792.88208	1119.20056	-1448.91248	-761.09155	1125.22632	-1368.95593	-738.49811	1131.40234	-1393.87341	-698.72211	1122.39038	-1378.32922	-669.95679	1127.49744	-1380.97070	-806.28491	1120.08557	-1361.04590	-827.07037	1132.94421	-1375.60266	-860.43524	1124.65979	-1352.41309	-896.01910	1130.40564	-1336.02209	-783.18524	1051.85791	-1552.15625	-700.99298	1082.32922	-1487.39502	-887.80511	1067.51697	-1484.46655	
685	2.850	-779.90015	1127.27917	-1319.69067	-781.36255	1125.38965	-1382.49231	-790.68042	1116.38782	-1435.93982	-758.21716	1120.10266	-1356.20740	-733.34070	1121.67212	-1378.74316	-698.01208	1106.48535	-1358.50647	-669.24744	1105.26184	-1357.34387	-803.55469	1115.97864	-1347.94983	-826.32074	1124.14441	-1359.07678	-853.78851	1106.94092	-1333.99329	-888.85028	1106.58276	-1314.14941	-783.91840	1045.50537	-1537.75232	-701.11719	1074.72449	-1476.57080	-885.22119	1063.51892	-1473.00488	
686	2.854	-776.89471	1123.21143	-1307.03113	-778.39893	1122.00073	-1369.57068	-788.34546	1114.09509	-1422.67773	-755.26379	1115.31067	-1343.29944	-729.46460	1112.11377	-1363.60022	-700.00970	1092.23267	-1338.86975	-673.38275	1084.40027	-1333.75562	-800.69482	1112.16040	-1334.86987	-824.35950	1115.59912	-1343.18884	-843.86572	1091.33008	-1316.47266	-880.88409	1081.31787	-1291.74646	-785.14044	1039.82190	-1523.32214	-701.39105	1067.80493	-1465.67554	-882.82233	1060.47534	-1461.30005	
687	2.858	-773.82269	1118.97644	-1294.24316	-775.49268	1118.76978	-1356.55115	-785.96985	1111.64429	-1409.75281	-752.29163	1110.96411	-1330.18665	-726.61957	1103.19861	-1348.86755	-703.94897	1080.67261	-1319.95654	-681.56012	1066.80176	-1311.15186	-797.70874	1108.54041	-1321.75098	-821.55389	1107.87244	-1328.42175	-831.60474	1078.94141	-1300.08594	-864.91296	1062.42041	-1272.92395	-786.57300	1034.89636	-1509.03357	-701.65100	1061.46228	-1454.59753	-880.77161	1058.07922	-1449.08252	
